<svg width="770" height="270" class="fretboard-chord-identifier-svg" xmlns="http://www.w3.org/2000/svg" viewBox="0 0 770 270"><rect x="0" y="0" width="770" height="270" rx="8" fill="#f9fafb" stroke="#d1d5db" stroke-width="1"/><line x1="170" y1="30" x2="170" y2="240" stroke="#9ca3af" stroke-width="1"/><line x1="220" y1="30" x2="220" y2="240" stroke="#9ca3af" stroke-width="1"/><line x1="270" y1="30" x2="270" y2="240" stroke="#9ca3af" stroke-width="1"/><line x1="320" y1="30" x2="320" y2="240" stroke="#9ca3af" stroke-width="1"/><line x1="370" y1="30" x2="370" y2="240" stroke="#9ca3af" stroke-width="1"/><line x1="420" y1="30" x2="420" y2="240" stroke="#9ca3af" stroke-width="1"/><line x1="470" y1="30" x2="470" y2="240" stroke="#9ca3af" stroke-width="1"/><line x1="520" y1="30" x2="520" y2="240" stroke="#9ca3af" stroke-width="1"/><line x1="570" y1="30" x2="570" y2="240" stroke="#9ca3af" stroke-width="1"/><line x1="620" y1="30" x2="620" y2="240" stroke="#9ca3af" stroke-width="1"/><line x1="670" y1="30" x2="670" y2="240" stroke="#9ca3af" stroke-width="1"/><line x1="720" y1="30" x2="720" y2="240" stroke="#9ca3af" stroke-width="1"/><line x1="70" y1="47.5" x2="720" y2="47.5" stroke="#6b7280" stroke-width="1"/><line x1="70" y1="82.5" x2="720" y2="82.5" stroke="#6b7280" stroke-width="1"/><line x1="70" y1="117.5" x2="720" y2="117.5" stroke="#6b7280" stroke-width="1"/><line x1="70" y1="152.5" x2="720" y2="152.5" stroke="#6b7280" stroke-width="1"/><line x1="70" y1="187.5" x2="720" y2="187.5" stroke="#6b7280" stroke-width="1"/><line x1="70" y1="222.5" x2="720" y2="222.5" stroke="#6b7280" stroke-width="1"/><circle cx="245" cy="135" r="4" fill="#374151" opacity="0.3"/><circle cx="345" cy="135" r="4" fill="#374151" opacity="0.3"/><circle cx="445" cy="135" r="4" fill="#374151" opacity="0.3"/><circle cx="545" cy="135" r="4" fill="#374151" opacity="0.3"/><g><circle cx="695" cy="127" r="4" fill="#374151" opacity="0.3"/><circle cx="695" cy="143" r="4" fill="#374151" opacity="0.3"/></g><g><circle cx="95" cy="222.5" r="14" fill="#eab308" stroke="#fff" stroke-width="3" class="fretboard-chord-identifier-note-shape"/><text x="95" y="223.5" text-anchor="middle" dominant-baseline="central" font-size="11" font-weight="bold" fill="white" class="fretboard-diagram-note-label">E</text></g><g><circle cx="145" cy="222.5" r="14" fill="#eab308" stroke="#fff" stroke-width="3" class="fretboard-chord-identifier-note-shape"/><text x="145" y="223.5" text-anchor="middle" dominant-baseline="central" font-size="11" font-weight="bold" fill="white" class="fretboard-diagram-note-label">F</text></g><g><circle cx="245" cy="222.5" r="14" fill="#eab308" stroke="#fff" stroke-width="3" class="fretboard-chord-identifier-note-shape"/><text x="245" y="223.5" text-anchor="middle" dominant-baseline="central" font-size="11" font-weight="bold" fill="white" class="fretboard-diagram-note-label">G</text></g><g><circle cx="345" cy="222.5" r="14" fill="#eab308" stroke="#fff" stroke-width="3" class="fretboard-chord-identifier-note-shape"/><text x="345" y="223.5" text-anchor="middle" dominant-baseline="central" font-size="11" font-weight="bold" fill="white" class="fretboard-diagram-note-label">A</text></g><g><circle cx="445" cy="222.5" r="14" fill="#eab308" stroke="#fff" stroke-width="3" class="fretboard-chord-identifier-note-shape"/><text x="445" y="223.5" text-anchor="middle" dominant-baseline="central" font-size="11" font-weight="bold" fill="white" class="fretboard-diagram-note-label">B</text></g><g><circle cx="495" cy="222.5" r="14" fill="#22c55e" stroke="#fff" stroke-width="3" class="fretboard-chord-identifier-note-shape"/><text x="495" y="223.5" text-anchor="middle" dominant-baseline="central" font-size="11" font-weight="bold" fill="white" class="fretboard-diagram-note-label">C</text></g><g><circle cx="595" cy="222.5" r="14" fill="#22c55e" stroke="#fff" stroke-width="3" class="fretboard-chord-identifier-note-shape"/><text x="595" y="223.5" text-anchor="middle" dominant-baseline="central" font-size="11" font-weight="bold" fill="white" class="fretboard-diagram-note-label">D</text></g><g><circle cx="695" cy="222.5" r="14" fill="#22c55e" stroke="#fff" stroke-width="3" class="fretboard-chord-identifier-note-shape"/><text x="695" y="223.5" text-anchor="middle" dominant-baseline="central" font-size="11" font-weight="bold" fill="white" class="fretboard-diagram-note-label">E</text></g><g><circle cx="95" cy="47.5" r="12" fill="transparent" class="fretboard-chord-identifier-hit-area"/><circle cx="95" cy="47.5" r="3" fill="#374151" opacity="0.2" class="fretboard-chord-identifier-hint-dot"/></g><g><circle cx="145" cy="47.5" r="12" fill="transparent" class="fretboard-chord-identifier-hit-area"/><circle cx="145" cy="47.5" r="3" fill="#374151" opacity="0.2" class="fretboard-chord-identifier-hint-dot"/></g><g><circle cx="195" cy="47.5" r="12" fill="transparent" class="fretboard-chord-identifier-hit-area"/><circle cx="195" cy="47.5" r="3" fill="#374151" opacity="0.2" class="fretboard-chord-identifier-hint-dot"/></g><g><circle cx="245" cy="47.5" r="12" fill="transparent" class="fretboard-chord-identifier-hit-area"/><circle cx="245" cy="47.5" r="3" fill="#374151" opacity="0.2" class="fretboard-chord-identifier-hint-dot"/></g><g><circle cx="295" cy="47.5" r="12" fill="transparent" class="fretboard-chord-identifier-hit-area"/><circle cx="295" cy="47.5" r="3" fill="#374151" opacity="0.2" class="fretboard-chord-identifier-hint-dot"/></g><g><circle cx="345" cy="47.5" r="12" fill="transparent" class="fretboard-chord-identifier-hit-area"/><circle cx="345" cy="47.5" r="3" fill="#374151" opacity="0.2" class="fretboard-chord-identifier-hint-dot"/></g><g><circle cx="395" cy="47.5" r="12" fill="transparent" class="fretboard-chord-identifier-hit-area"/><circle cx="395" cy="47.5" r="3" fill="#374151" opacity="0.2" class="fretboard-chord-identifier-hint-dot"/></g><g><circle cx="445" cy="47.5" r="12" fill="transparent" class="fretboard-chord-identifier-hit-area"/><circle cx="445" cy="47.5" r="3" fill="#374151" opacity="0.2" class="fretboard-chord-identifier-hint-dot"/></g><g><circle cx="495" cy="47.5" r="12" fill="transparent" class="fretboard-chord-identifier-hit-area"/><circle cx="495" cy="47.5" r="3" fill="#374151" opacity="0.2" class="fretboard-chord-identifier-hint-dot"/></g><g><circle cx="545" cy="47.5" r="12" fill="transparent" class="fretboard-chord-identifier-hit-area"/><circle cx="545" cy="47.5" r="3" fill="#374151" opacity="0.2" class="fretboard-chord-identifier-hint-dot"/></g><g><circle cx="595" cy="47.5" r="12" fill="transparent" class="fretboard-chord-identifier-hit-area"/><circle cx="595" cy="47.5" r="3" fill="#374151" opacity="0.2" class="fretboard-chord-identifier-hint-dot"/></g><g><circle cx="645" cy="47.5" r="12" fill="transparent" class="fretboard-chord-identifier-hit-area"/><circle cx="645" cy="47.5" r="3" fill="#374151" opacity="0.2" class="fretboard-chord-identifier-hint-dot"/></g><g><circle cx="695" cy="47.5" r="12" fill="transparent" class="fretboard-chord-identifier-hit-area"/><circle cx="695" cy="47.5" r="3" fill="#374151" opacity="0.2" class="fretboard-chord-identifier-hint-dot"/></g><g><circle cx="95" cy="82.5" r="12" fill="transparent" class="fretboard-chord-identifier-hit-area"/><circle cx="95" cy="82.5" r="3" fill="#374151" opacity="0.2" class="fretboard-chord-identifier-hint-dot"/></g><g><circle cx="145" cy="82.5" r="12" fill="transparent" class="fretboard-chord-identifier-hit-area"/><circle cx="145" cy="82.5" r="3" fill="#374151" opacity="0.2" class="fretboard-chord-identifier-hint-dot"/></g><g><circle cx="195" cy="82.5" r="12" fill="transparent" class="fretboard-chord-identifier-hit-area"/><circle cx="195" cy="82.5" r="3" fill="#374151" opacity="0.2" class="fretboard-chord-identifier-hint-dot"/></g><g><circle cx="245" cy="82.5" r="12" fill="transparent" class="fretboard-chord-identifier-hit-area"/><circle cx="245" cy="82.5" r="3" fill="#374151" opacity="0.2" class="fretboard-chord-identifier-hint-dot"/></g><g><circle cx="295" cy="82.5" r="12" fill="transparent" class="fretboard-chord-identifier-hit-area"/><circle cx="295" cy="82.5" r="3" fill="#374151" opacity="0.2" class="fretboard-chord-identifier-hint-dot"/></g><g><circle cx="345" cy="82.5" r="12" fill="transparent" class="fretboard-chord-identifier-hit-area"/><circle cx="345" cy="82.5" r="3" fill="#374151" opacity="0.2" class="fretboard-chord-identifier-hint-dot"/></g><g><circle cx="395" cy="82.5" r="12" fill="transparent" class="fretboard-chord-identifier-hit-area"/><circle cx="395" cy="82.5" r="3" fill="#374151" opacity="0.2" class="fretboard-chord-identifier-hint-dot"/></g><g><circle cx="445" cy="82.5" r="12" fill="transparent" class="fretboard-chord-identifier-hit-area"/><circle cx="445" cy="82.5" r="3" fill="#374151" opacity="0.2" class="fretboard-chord-identifier-hint-dot"/></g><g><circle cx="495" cy="82.5" r="12" fill="transparent" class="fretboard-chord-identifier-hit-area"/><circle cx="495" cy="82.5" r="3" fill="#374151" opacity="0.2" class="fretboard-chord-identifier-hint-dot"/></g><g><circle cx="545" cy="82.5" r="12" fill="transparent" class="fretboard-chord-identifier-hit-area"/><circle cx="545" cy="82.5" r="3" fill="#374151" opacity="0.2" class="fretboard-chord-identifier-hint-dot"/></g><g><circle cx="595" cy="82.5" r="12" fill="transparent" class="fretboard-chord-identifier-hit-area"/><circle cx="595" cy="82.5" r="3" fill="#374151" opacity="0.2" class="fretboard-chord-identifier-hint-dot"/></g><g><circle cx="645" cy="82.5" r="12" fill="transparent" class="fretboard-chord-identifier-hit-area"/><circle cx="645" cy="82.5" r="3" fill="#374151" opacity="0.2" class="fretboard-chord-identifier-hint-dot"/></g><g><circle cx="695" cy="82.5" r="12" fill="transparent" class="fretboard-chord-identifier-hit-area"/><circle cx="695" cy="82.5" r="3" fill="#374151" opacity="0.2" class="fretboard-chord-identifier-hint-dot"/></g><g><circle cx="95" cy="117.5" r="12" fill="transparent" class="fretboard-chord-identifier-hit-area"/><circle cx="95" cy="117.5" r="3" fill="#374151" opacity="0.2" class="fretboard-chord-identifier-hint-dot"/></g><g><circle cx="145" cy="117.5" r="12" fill="transparent" class="fretboard-chord-identifier-hit-area"/><circle cx="145" cy="117.5" r="3" fill="#374151" opacity="0.2" class="fretboard-chord-identifier-hint-dot"/></g><g><circle cx="195" cy="117.5" r="12" fill="transparent" class="fretboard-chord-identifier-hit-area"/><circle cx="195" cy="117.5" r="3" fill="#374151" opacity="0.2" class="fretboard-chord-identifier-hint-dot"/></g><g><circle cx="245" cy="117.5" r="12" fill="transparent" class="fretboard-chord-identifier-hit-area"/><circle cx="245" cy="117.5" r="3" fill="#374151" opacity="0.2" class="fretboard-chord-identifier-hint-dot"/></g><g><circle cx="295" cy="117.5" r="12" fill="transparent" class="fretboard-chord-identifier-hit-area"/><circle cx="295" cy="117.5" r="3" fill="#374151" opacity="0.2" class="fretboard-chord-identifier-hint-dot"/></g><g><circle cx="345" cy="117.5" r="12" fill="transparent" class="fretboard-chord-identifier-hit-area"/><circle cx="345" cy="117.5" r="3" fill="#374151" opacity="0.2" class="fretboard-chord-identifier-hint-dot"/></g><g><circle cx="395" cy="117.5" r="12" fill="transparent" class="fretboard-chord-identifier-hit-area"/><circle cx="395" cy="117.5" r="3" fill="#374151" opacity="0.2" class="fretboard-chord-identifier-hint-dot"/></g><g><circle cx="445" cy="117.5" r="12" fill="transparent" class="fretboard-chord-identifier-hit-area"/><circle cx="445" cy="117.5" r="3" fill="#374151" opacity="0.2" class="fretboard-chord-identifier-hint-dot"/></g><g><circle cx="495" cy="117.5" r="12" fill="transparent" class="fretboard-chord-identifier-hit-area"/><circle cx="495" cy="117.5" r="3" fill="#374151" opacity="0.2" class="fretboard-chord-identifier-hint-dot"/></g><g><circle cx="545" cy="117.5" r="12" fill="transparent" class="fretboard-chord-identifier-hit-area"/><circle cx="545" cy="117.5" r="3" fill="#374151" opacity="0.2" class="fretboard-chord-identifier-hint-dot"/></g><g><circle cx="595" cy="117.5" r="12" fill="transparent" class="fretboard-chord-identifier-hit-area"/><circle cx="595" cy="117.5" r="3" fill="#374151" opacity="0.2" class="fretboard-chord-identifier-hint-dot"/></g><g><circle cx="645" cy="117.5" r="12" fill="transparent" class="fretboard-chord-identifier-hit-area"/><circle cx="645" cy="117.5" r="3" fill="#374151" opacity="0.2" class="fretboard-chord-identifier-hint-dot"/></g><g><circle cx="695" cy="117.5" r="12" fill="transparent" class="fretboard-chord-identifier-hit-area"/><circle cx="695" cy="117.5" r="3" fill="#374151" opacity="0.2" class="fretboard-chord-identifier-hint-dot"/></g><g><circle cx="95" cy="152.5" r="12" fill="transparent" class="fretboard-chord-identifier-hit-area"/><circle cx="95" cy="152.5" r="3" fill="#374151" opacity="0.2" class="fretboard-chord-identifier-hint-dot"/></g><g><circle cx="145" cy="152.5" r="12" fill="transparent" class="fretboard-chord-identifier-hit-area"/><circle cx="145" cy="152.5" r="3" fill="#374151" opacity="0.2" class="fretboard-chord-identifier-hint-dot"/></g><g><circle cx="195" cy="152.5" r="12" fill="transparent" class="fretboard-chord-identifier-hit-area"/><circle cx="195" cy="152.5" r="3" fill="#374151" opacity="0.2" class="fretboard-chord-identifier-hint-dot"/></g><g><circle cx="245" cy="152.5" r="12" fill="transparent" class="fretboard-chord-identifier-hit-area"/><circle cx="245" cy="152.5" r="3" fill="#374151" opacity="0.2" class="fretboard-chord-identifier-hint-dot"/></g><g><circle cx="295" cy="152.5" r="12" fill="transparent" class="fretboard-chord-identifier-hit-area"/><circle cx="295" cy="152.5" r="3" fill="#374151" opacity="0.2" class="fretboard-chord-identifier-hint-dot"/></g><g><circle cx="345" cy="152.5" r="12" fill="transparent" class="fretboard-chord-identifier-hit-area"/><circle cx="345" cy="152.5" r="3" fill="#374151" opacity="0.2" class="fretboard-chord-identifier-hint-dot"/></g><g><circle cx="395" cy="152.5" r="12" fill="transparent" class="fretboard-chord-identifier-hit-area"/><circle cx="395" cy="152.5" r="3" fill="#374151" opacity="0.2" class="fretboard-chord-identifier-hint-dot"/></g><g><circle cx="445" cy="152.5" r="12" fill="transparent" class="fretboard-chord-identifier-hit-area"/><circle cx="445" cy="152.5" r="3" fill="#374151" opacity="0.2" class="fretboard-chord-identifier-hint-dot"/></g><g><circle cx="495" cy="152.5" r="12" fill="transparent" class="fretboard-chord-identifier-hit-area"/><circle cx="495" cy="152.5" r="3" fill="#374151" opacity="0.2" class="fretboard-chord-identifier-hint-dot"/></g><g><circle cx="545" cy="152.5" r="12" fill="transparent" class="fretboard-chord-identifier-hit-area"/><circle cx="545" cy="152.5" r="3" fill="#374151" opacity="0.2" class="fretboard-chord-identifier-hint-dot"/></g><g><circle cx="595" cy="152.5" r="12" fill="transparent" class="fretboard-chord-identifier-hit-area"/><circle cx="595" cy="152.5" r="3" fill="#374151" opacity="0.2" class="fretboard-chord-identifier-hint-dot"/></g><g><circle cx="645" cy="152.5" r="12" fill="transparent" class="fretboard-chord-identifier-hit-area"/><circle cx="645" cy="152.5" r="3" fill="#374151" opacity="0.2" class="fretboard-chord-identifier-hint-dot"/></g><g><circle cx="695" cy="152.5" r="12" fill="transparent" class="fretboard-chord-identifier-hit-area"/><circle cx="695" cy="152.5" r="3" fill="#374151" opacity="0.2" class="fretboard-chord-identifier-hint-dot"/></g><g><circle cx="95" cy="187.5" r="12" fill="transparent" class="fretboard-chord-identifier-hit-area"/><circle cx="95" cy="187.5" r="3" fill="#374151" opacity="0.2" class="fretboard-chord-identifier-hint-dot"/></g><g><circle cx="145" cy="187.5" r="12" fill="transparent" class="fretboard-chord-identifier-hit-area"/><circle cx="145" cy="187.5" r="3" fill="#374151" opacity="0.2" class="fretboard-chord-identifier-hint-dot"/></g><g><circle cx="195" cy="187.5" r="12" fill="transparent" class="fretboard-chord-identifier-hit-area"/><circle cx="195" cy="187.5" r="3" fill="#374151" opacity="0.2" class="fretboard-chord-identifier-hint-dot"/></g><g><circle cx="245" cy="187.5" r="12" fill="transparent" class="fretboard-chord-identifier-hit-area"/><circle cx="245" cy="187.5" r="3" fill="#374151" opacity="0.2" class="fretboard-chord-identifier-hint-dot"/></g><g><circle cx="295" cy="187.5" r="12" fill="transparent" class="fretboard-chord-identifier-hit-area"/><circle cx="295" cy="187.5" r="3" fill="#374151" opacity="0.2" class="fretboard-chord-identifier-hint-dot"/></g><g><circle cx="345" cy="187.5" r="12" fill="transparent" class="fretboard-chord-identifier-hit-area"/><circle cx="345" cy="187.5" r="3" fill="#374151" opacity="0.2" class="fretboard-chord-identifier-hint-dot"/></g><g><circle cx="395" cy="187.5" r="12" fill="transparent" class="fretboard-chord-identifier-hit-area"/><circle cx="395" cy="187.5" r="3" fill="#374151" opacity="0.2" class="fretboard-chord-identifier-hint-dot"/></g><g><circle cx="445" cy="187.5" r="12" fill="transparent" class="fretboard-chord-identifier-hit-area"/><circle cx="445" cy="187.5" r="3" fill="#374151" opacity="0.2" class="fretboard-chord-identifier-hint-dot"/></g><g><circle cx="495" cy="187.5" r="12" fill="transparent" class="fretboard-chord-identifier-hit-area"/><circle cx="495" cy="187.5" r="3" fill="#374151" opacity="0.2" class="fretboard-chord-identifier-hint-dot"/></g><g><circle cx="545" cy="187.5" r="12" fill="transparent" class="fretboard-chord-identifier-hit-area"/><circle cx="545" cy="187.5" r="3" fill="#374151" opacity="0.2" class="fretboard-chord-identifier-hint-dot"/></g><g><circle cx="595" cy="187.5" r="12" fill="transparent" class="fretboard-chord-identifier-hit-area"/><circle cx="595" cy="187.5" r="3" fill="#374151" opacity="0.2" class="fretboard-chord-identifier-hint-dot"/></g><g><circle cx="645" cy="187.5" r="12" fill="transparent" class="fretboard-chord-identifier-hit-area"/><circle cx="645" cy="187.5" r="3" fill="#374151" opacity="0.2" class="fretboard-chord-identifier-hint-dot"/></g><g><circle cx="695" cy="187.5" r="12" fill="transparent" class="fretboard-chord-identifier-hit-area"/><circle cx="695" cy="187.5" r="3" fill="#374151" opacity="0.2" class="fretboard-chord-identifier-hint-dot"/></g><g><circle cx="195" cy="222.5" r="12" fill="transparent" class="fretboard-chord-identifier-hit-area"/><circle cx="195" cy="222.5" r="3" fill="#374151" opacity="0.2" class="fretboard-chord-identifier-hint-dot"/></g><g><circle cx="295" cy="222.5" r="12" fill="transparent" class="fretboard-chord-identifier-hit-area"/><circle cx="295" cy="222.5" r="3" fill="#374151" opacity="0.2" class="fretboard-chord-identifier-hint-dot"/></g><g><circle cx="395" cy="222.5" r="12" fill="transparent" class="fretboard-chord-identifier-hit-area"/><circle cx="395" cy="222.5" r="3" fill="#374151" opacity="0.2" class="fretboard-chord-identifier-hint-dot"/></g><g><circle cx="545" cy="222.5" r="12" fill="transparent" class="fretboard-chord-identifier-hit-area"/><circle cx="545" cy="222.5" r="3" fill="#374151" opacity="0.2" class="fretboard-chord-identifier-hint-dot"/></g><g><circle cx="645" cy="222.5" r="12" fill="transparent" class="fretboard-chord-identifier-hit-area"/><circle cx="645" cy="222.5" r="3" fill="#374151" opacity="0.2" class="fretboard-chord-identifier-hint-dot"/></g><g><g><line x1="45" y1="41.5" x2="55" y2="53.5" stroke="#ef4444" stroke-width="2"/><line x1="55" y1="41.5" x2="45" y2="53.5" stroke="#ef4444" stroke-width="2"/></g></g><g><g><line x1="45" y1="76.5" x2="55" y2="88.5" stroke="#ef4444" stroke-width="2"/><line x1="55" y1="76.5" x2="45" y2="88.5" stroke="#ef4444" stroke-width="2"/></g></g><g><g><line x1="45" y1="111.5" x2="55" y2="123.5" stroke="#ef4444" stroke-width="2"/><line x1="55" y1="111.5" x2="45" y2="123.5" stroke="#ef4444" stroke-width="2"/></g></g><g><g><line x1="45" y1="146.5" x2="55" y2="158.5" stroke="#ef4444" stroke-width="2"/><line x1="55" y1="146.5" x2="45" y2="158.5" stroke="#ef4444" stroke-width="2"/></g></g><g><g><line x1="45" y1="181.5" x2="55" y2="193.5" stroke="#ef4444" stroke-width="2"/><line x1="55" y1="181.5" x2="45" y2="193.5" stroke="#ef4444" stroke-width="2"/></g></g><g><circle cx="50" cy="222.5" r="6" fill="none" stroke="#22c55e" stroke-width="2"/></g><text x="145" y="260" text-anchor="middle" font-size="10" fill="#374151" class="fretboard-diagram-fret-label">1</text><text x="195" y="260" text-anchor="middle" font-size="10" fill="#374151" class="fretboard-diagram-fret-label">2</text><text x="245" y="260" text-anchor="middle" font-size="10" fill="#374151" class="fretboard-diagram-fret-label">3</text><text x="295" y="260" text-anchor="middle" font-size="10" fill="#374151" class="fretboard-diagram-fret-label">4</text><text x="345" y="260" text-anchor="middle" font-size="10" fill="#374151" class="fretboard-diagram-fret-label">5</text><text x="395" y="260" text-anchor="middle" font-size="10" fill="#374151" class="fretboard-diagram-fret-label">6</text><text x="445" y="260" text-anchor="middle" font-size="10" fill="#374151" class="fretboard-diagram-fret-label">7</text><text x="495" y="260" text-anchor="middle" font-size="10" fill="#374151" class="fretboard-diagram-fret-label">8</text><text x="545" y="260" text-anchor="middle" font-size="10" fill="#374151" class="fretboard-diagram-fret-label">9</text><text x="595" y="260" text-anchor="middle" font-size="10" fill="#374151" class="fretboard-diagram-fret-label">10</text><text x="645" y="260" text-anchor="middle" font-size="10" fill="#374151" class="fretboard-diagram-fret-label">11</text><text x="695" y="260" text-anchor="middle" font-size="10" fill="#374151" class="fretboard-diagram-fret-label">12</text><text x="25" y="48.5" text-anchor="middle" dominant-baseline="central" font-size="10" fill="#374151" class="fretboard-diagram-string-label">E4</text><text x="25" y="83.5" text-anchor="middle" dominant-baseline="central" font-size="10" fill="#374151" class="fretboard-diagram-string-label">B3</text><text x="25" y="118.5" text-anchor="middle" dominant-baseline="central" font-size="10" fill="#374151" class="fretboard-diagram-string-label">G3</text><text x="25" y="153.5" text-anchor="middle" dominant-baseline="central" font-size="10" fill="#374151" class="fretboard-diagram-string-label">D3</text><text x="25" y="188.5" text-anchor="middle" dominant-baseline="central" font-size="10" fill="#374151" class="fretboard-diagram-string-label">A2</text><text x="25" y="223.5" text-anchor="middle" dominant-baseline="central" font-size="10" fill="#374151" class="fretboard-diagram-string-label">E2</text><line x1="120" y1="30" x2="120" y2="240" stroke="#374151" stroke-width="4"/><text x="762" y="12" text-anchor="end" font-size="8" font-family="Arial, sans-serif" fill="#6b7280">(c) sixstringsapp.com</text></svg>