<svg width="309" height="208" class="fretboard-chord-diagram-svg" xmlns="http://www.w3.org/2000/svg" viewBox="0 0 309 208"><rect x="0" y="0" width="309" height="208" rx="8" fill="#f9fafb" stroke="#d1d5db" stroke-width="1"/><title>C - X35553</title><line x1="58" y1="18" x2="58" y2="186" stroke="#9ca3af" stroke-width="1"/><line x1="103" y1="18" x2="103" y2="186" stroke="#9ca3af" stroke-width="1"/><line x1="148" y1="18" x2="148" y2="186" stroke="#9ca3af" stroke-width="1"/><line x1="193" y1="18" x2="193" y2="186" stroke="#9ca3af" stroke-width="1"/><line x1="238" y1="18" x2="238" y2="186" stroke="#9ca3af" stroke-width="1"/><line x1="283" y1="18" x2="283" y2="186" stroke="#9ca3af" stroke-width="1"/><line x1="22" y1="32" x2="283" y2="32" stroke="#6b7280" stroke-width="1"/><line x1="22" y1="60" x2="283" y2="60" stroke="#6b7280" stroke-width="1"/><line x1="22" y1="88" x2="283" y2="88" stroke="#6b7280" stroke-width="1"/><line x1="22" y1="116" x2="283" y2="116" stroke="#6b7280" stroke-width="1"/><line x1="22" y1="144" x2="283" y2="144" stroke="#6b7280" stroke-width="1"/><line x1="22" y1="172" x2="283" y2="172" stroke="#6b7280" stroke-width="1"/><line x1="80.5" y1="51" x2="80.5" y2="125" stroke="#111827" stroke-width="2" stroke-dasharray="4 4" stroke-linecap="round" opacity="0.6"/><circle cx="80.5" cy="104" r="4" fill="#374151" opacity="0.3"/><circle cx="170.5" cy="104" r="4" fill="#374151" opacity="0.3"/><circle cx="260.5" cy="104" r="4" fill="#374151" opacity="0.3"/><g><circle cx="80.5" cy="32" r="12" fill="#3b82f6" stroke="rgba(255,255,255,0.5)" stroke-width="1" class="fretboard-diagram-note-shape"/><text x="80.5" y="33" text-anchor="middle" dominant-baseline="central" font-size="10" font-weight="normal" fill="white" class="fretboard-diagram-note-label">G</text></g><g><circle cx="170.5" cy="60" r="12" fill="#3b82f6" stroke="rgba(255,255,255,0.5)" stroke-width="1" class="fretboard-diagram-note-shape"/><text x="170.5" y="61" text-anchor="middle" dominant-baseline="central" font-size="10" font-weight="normal" fill="white" class="fretboard-diagram-note-label">E</text></g><g><rect x="158.5" y="76" width="24" height="24" fill="#3b82f6" stroke="#fff" stroke-width="3" rx="2" class="fretboard-diagram-note-shape"/><text x="170.5" y="89" text-anchor="middle" dominant-baseline="central" font-size="10" font-weight="bold" fill="white" class="fretboard-diagram-note-label">C</text></g><g><circle cx="170.5" cy="116" r="12" fill="#22c55e" stroke="rgba(255,255,255,0.5)" stroke-width="1" class="fretboard-diagram-note-shape"/><text x="170.5" y="117" text-anchor="middle" dominant-baseline="central" font-size="10" font-weight="normal" fill="white" class="fretboard-diagram-note-label">G</text></g><g><rect x="68.5" y="132" width="24" height="24" fill="#22c55e" stroke="#fff" stroke-width="3" rx="2" class="fretboard-diagram-note-shape"/><text x="80.5" y="145" text-anchor="middle" dominant-baseline="central" font-size="10" font-weight="bold" fill="white" class="fretboard-diagram-note-label">C</text></g><g><line x1="34" y1="166" x2="46" y2="178" stroke="#ef4444" stroke-width="1.4" opacity="0.75"/><line x1="46" y1="166" x2="34" y2="178" stroke="#ef4444" stroke-width="1.4" opacity="0.75"/></g><text x="80.5" y="200" text-anchor="middle" font-size="10" fill="#374151" class="fretboard-diagram-fret-label">3</text><text x="125.5" y="200" text-anchor="middle" font-size="10" fill="#374151" class="fretboard-diagram-fret-label">4</text><text x="170.5" y="200" text-anchor="middle" font-size="10" fill="#374151" class="fretboard-diagram-fret-label">5</text><text x="215.5" y="200" text-anchor="middle" font-size="10" fill="#374151" class="fretboard-diagram-fret-label">6</text><text x="260.5" y="200" text-anchor="middle" font-size="10" fill="#374151" class="fretboard-diagram-fret-label">7</text><text x="12" y="33" text-anchor="middle" dominant-baseline="central" font-size="10" fill="#374151" class="fretboard-diagram-string-label">E4</text><text x="12" y="61" text-anchor="middle" dominant-baseline="central" font-size="10" fill="#374151" class="fretboard-diagram-string-label">B3</text><text x="12" y="89" text-anchor="middle" dominant-baseline="central" font-size="10" fill="#374151" class="fretboard-diagram-string-label">G3</text><text x="12" y="117" text-anchor="middle" dominant-baseline="central" font-size="10" fill="#374151" class="fretboard-diagram-string-label">D3</text><text x="12" y="145" text-anchor="middle" dominant-baseline="central" font-size="10" fill="#374151" class="fretboard-diagram-string-label">A2</text><text x="12" y="173" text-anchor="middle" dominant-baseline="central" font-size="10" fill="#374151" class="fretboard-diagram-string-label">E2</text><text x="303" y="12" text-anchor="end" font-size="8" font-family="Arial, sans-serif" fill="#6b7280">© sixstringsapp.com</text></svg>